<?xml version="1.0" standalone="no"?>
<!DOCTYPE svg PUBLIC "-//W3C//DTD SVG 20010904//EN"
 "http://www.w3.org/TR/2001/REC-SVG-20010904/DTD/svg10.dtd">
<svg version="1.0" xmlns="http://www.w3.org/2000/svg"
 width="980.000000pt" height="980.000000pt" viewBox="0 0 980.000000 980.000000"
 preserveAspectRatio="xMidYMid meet">
<metadata>
Created by potrace 1.11, written by Peter Selinger 2001-2013
</metadata>
<g transform="translate(0.000000,980.000000) scale(0.100000,-0.100000)"
fill="#000000" stroke="none">
<path d="M4710 8880 l-4455 -5 -47 -23 c-60 -30 -123 -98 -154 -167 -57 -124
-54 121 -54 -3817 0 -2573 3 -3642 11 -3678 28 -130 148 -227 324 -261 31 -6
1725 -9 4606 -9 3981 0 4563 2 4606 15 104 31 176 110 222 244 l26 76 3 3640
c2 2695 0 3656 -9 3700 -14 73 -29 105 -80 160 -78 85 -256 137 -448 133 -53
-2 -2101 -5 -4551 -8z m-3150 -1085 l0 -425 -425 0 -425 0 0 425 0 425 425 0
425 0 0 -425z m2060 0 l0 -425 -855 0 -855 0 0 425 0 425 855 0 855 0 0 -425z
m5195 -1036 c164 -30 263 -135 321 -339 18 -62 19 -148 21 -1785 2 -946 0
-1884 -5 -2085 l-8 -365 -28 -62 c-35 -76 -108 -148 -189 -187 -128 -60 159
-56 -4078 -56 -3448 0 -3892 2 -3944 16 -73 19 -110 41 -167 101 -58 62 -96
145 -119 257 -18 87 -19 171 -18 1956 0 1026 4 1948 7 2050 l7 185 37 78 c61
127 163 213 279 236 68 14 7812 13 7884 0z"/>
<path d="M1935 5470 l-180 -180 518 -518 517 -517 -514 -521 -514 -521 176
-176 177 -177 698 698 697 697 -698 698 -697 697 -180 -180z"/>
<path d="M3980 3180 l0 -320 1020 0 1020 0 0 320 0 320 -1020 0 -1020 0 0
-320z"/>
</g>
</svg>
